<svg width="1200" height="331" viewBox="0 0 1200 331" fill="none" xmlns="http://www.w3.org/2000/svg">
<path d="M460.141 216.5C468.203 216.5 475.24 215.422 481.251 213.264C487.333 211.037 491.753 208.845 494.511 206.688L504.058 225.477C500.876 228.261 495.324 231.08 487.403 233.933C479.483 236.786 470.006 238.213 458.974 238.213C448.649 238.213 439.031 236.403 430.12 232.785C421.209 229.166 413.395 224.155 406.676 217.753C399.958 211.281 394.725 203.73 390.977 195.101C387.228 186.472 385.354 177.111 385.354 167.021C385.354 156.93 387.228 147.535 390.977 138.836C394.725 130.137 399.923 122.552 406.57 116.08C413.289 109.608 421.103 104.563 430.014 100.944C438.996 97.2555 448.649 95.4113 458.974 95.4113C470.006 95.4113 479.483 96.8379 487.403 99.6912C495.324 102.544 500.876 105.363 504.058 108.147L494.511 126.936C491.753 124.779 487.333 122.622 481.251 120.464C475.24 118.237 468.203 117.124 460.141 117.124C452.503 117.124 445.572 118.376 439.349 120.882C433.126 123.387 427.786 126.901 423.331 131.425C418.876 135.948 415.446 141.237 413.041 147.292C410.637 153.276 409.435 159.748 409.435 166.708C409.435 173.736 410.637 180.278 413.041 186.332C415.446 192.387 418.876 197.676 423.331 202.199C427.786 206.723 433.126 210.237 439.349 212.742C445.572 215.248 452.503 216.5 460.141 216.5Z" fill="black"/>
<path d="M555.77 238.213C546.647 238.213 538.515 236.264 531.372 232.367C524.3 228.4 518.748 223.042 514.717 216.291C510.686 209.471 508.671 201.747 508.671 193.118C508.671 184.488 510.686 176.729 514.717 169.839C518.748 162.95 524.3 157.522 531.372 153.555C538.515 149.519 546.647 147.5 555.77 147.5C564.893 147.5 572.955 149.519 579.957 153.555C586.958 157.522 592.439 162.95 596.399 169.839C600.43 176.729 602.446 184.488 602.446 193.118C602.446 201.747 600.43 209.471 596.399 216.291C592.439 223.042 586.958 228.4 579.957 232.367C572.955 236.264 564.893 238.213 555.77 238.213ZM555.77 219.423C560.862 219.423 565.282 218.275 569.03 215.978C572.778 213.682 575.678 210.55 577.729 206.583C579.78 202.617 580.805 198.093 580.805 193.013C580.805 187.933 579.78 183.41 577.729 179.443C575.678 175.407 572.778 172.205 569.03 169.839C565.282 167.473 560.862 166.29 555.77 166.29C550.678 166.29 546.223 167.473 542.404 169.839C538.656 172.205 535.721 175.407 533.6 179.443C531.549 183.41 530.523 187.933 530.523 193.013C530.523 198.093 531.549 202.617 533.6 206.583C535.721 210.55 538.656 213.682 542.404 215.978C546.223 218.275 550.678 219.423 555.77 219.423Z" fill="black"/>
<path d="M610.584 235.707V150.006H633.179V235.707H610.584ZM622.147 124.326C618.328 124.326 615.039 122.969 612.281 120.255C609.594 117.541 608.25 114.305 608.25 110.547C608.25 106.789 609.594 103.553 612.281 100.839C615.039 98.0558 618.328 96.664 622.147 96.664C624.693 96.664 627.026 97.3251 629.148 98.6473C631.34 99.8999 633.073 101.57 634.346 103.658C635.689 105.676 636.361 107.973 636.361 110.547C636.361 114.305 634.982 117.541 632.224 120.255C629.466 122.969 626.107 124.326 622.147 124.326Z" fill="black"/>
<path d="M699.003 147.5C704.873 147.5 710.566 148.683 716.082 151.05C721.598 153.416 726.124 157.208 729.66 162.428C733.267 167.577 735.07 174.293 735.07 182.574V235.707H712.263V186.646C712.263 178.921 710.389 173.249 706.641 169.63C702.964 165.942 698.19 164.098 692.32 164.098C688.431 164.098 684.718 165.177 681.182 167.334C677.646 169.491 674.746 172.414 672.483 176.102C670.291 179.791 669.195 184.036 669.195 188.838V235.707H646.494V150.006H669.195V164.411C669.831 162.045 671.529 159.574 674.287 157C677.115 154.355 680.687 152.128 685.001 150.319C689.315 148.44 693.982 147.5 699.003 147.5Z" fill="black"/>
<path d="M779.722 117.541H743.336V97.9166H838.49V117.541H802.105V235.707H779.722V117.541Z" fill="black"/>
<path d="M840.617 235.707H818.022V150.006H840.617V164.307H840.086C840.581 162.567 841.925 160.41 844.117 157.835C846.38 155.19 849.492 152.824 853.452 150.736C857.413 148.579 862.186 147.5 867.773 147.5C871.804 147.5 875.411 148.057 878.593 149.171C881.776 150.284 884.039 151.398 885.383 152.511L876.26 170.883C875.34 169.77 873.608 168.691 871.062 167.647C868.587 166.534 865.51 165.977 861.833 165.977C857.236 165.977 853.346 167.299 850.164 169.944C847.052 172.588 844.683 175.754 843.057 179.443C841.43 183.131 840.617 186.576 840.617 189.777V235.707Z" fill="black"/>
<path d="M911.321 192.074C911.321 200.425 913.053 207.071 916.519 212.012C920.055 216.953 925.606 219.423 933.173 219.423C940.811 219.423 946.363 216.953 949.828 212.012C953.293 207.071 955.026 200.425 955.026 192.074V150.006H977.515V194.892C977.515 203.521 975.782 211.107 972.317 217.648C968.852 224.12 963.83 229.166 957.253 232.785C950.676 236.403 942.65 238.213 933.173 238.213C923.768 238.213 915.776 236.403 909.199 232.785C902.622 229.166 897.601 224.12 894.136 217.648C890.671 211.107 888.938 203.521 888.938 194.892V150.006H911.321V192.074Z" fill="black"/>
<path d="M1042.53 147.5C1048.4 147.5 1054.09 148.683 1059.61 151.05C1065.12 153.416 1069.65 157.208 1073.19 162.428C1076.79 167.577 1078.6 174.293 1078.6 182.574V235.707H1055.79V186.646C1055.79 178.921 1053.91 173.249 1050.17 169.63C1046.49 165.942 1041.72 164.098 1035.85 164.098C1031.96 164.098 1028.24 165.177 1024.71 167.334C1021.17 169.491 1018.27 172.414 1016.01 176.102C1013.82 179.791 1012.72 184.036 1012.72 188.838V235.707H990.019V150.006H1012.72V164.411C1013.36 162.045 1015.05 159.574 1017.81 157C1020.64 154.355 1024.21 152.128 1028.53 150.319C1032.84 148.44 1037.51 147.5 1042.53 147.5Z" fill="black"/>
<path d="M1150.09 150.006H1176.71L1132.9 190.821L1180 235.707H1152.95L1114.65 198.859V235.707H1091.95V92.0709H1114.65V182.679L1150.09 150.006Z" fill="black"/>
<path fill-rule="evenodd" clip-rule="evenodd" d="M166.142 311.283C246.854 311.283 312.283 245.854 312.283 165.142C312.283 84.4299 246.854 19 166.142 19C85.4299 19 20 84.4299 20 165.142C20 245.854 85.4299 311.283 166.142 311.283ZM263.021 262.021C242.521 282.522 216.045 295.99 187.405 300.49C158.764 304.989 129.434 300.287 103.635 287.06C77.8362 273.833 56.8981 252.763 43.8335 226.882C30.7688 201 26.251 171.642 30.9302 143.03C35.6093 114.418 49.2442 88.0275 69.873 67.6562C90.5018 47.2849 117.061 33.9826 145.729 29.6631C174.398 25.3437 203.698 30.2298 229.413 43.6185C255.128 57.0073 275.934 78.2083 288.836 104.171L210.923 142.889C206.214 133.413 198.62 125.675 189.235 120.788C179.849 115.902 169.155 114.118 158.692 115.695C148.228 117.271 138.535 122.126 131.006 129.561C123.476 136.997 118.5 146.628 116.792 157.071C115.084 167.514 116.733 178.23 121.502 187.676C126.27 197.122 133.912 204.812 143.328 209.64C152.744 214.467 163.449 216.184 173.902 214.541C184.356 212.899 194.019 207.983 201.501 200.501L263.021 262.021ZM266.811 142.228L266.81 142.223L266.717 142.263L266.615 142.307L266.811 142.228ZM276.805 147.877L293.786 140.599L302.181 137.001L298.583 128.606L294.985 120.21L286.59 123.808L263.119 133.867L226.034 148.701L217.553 152.094L220.945 160.574L224.338 169.055L232.818 165.663L250.318 158.663L259.231 155.097C259.505 158.342 259.604 161.585 259.532 164.814C259.061 186.084 251.179 206.744 236.92 223.047L236.906 223.064L243.78 229.078L250.654 235.093C252.67 232.788 254.581 230.411 256.383 227.969C273.327 205.002 280.698 176.264 276.805 147.877Z" fill="black"/>
</svg>
