<svg width="1200" height="331" viewBox="0 0 1200 331" fill="none" xmlns="http://www.w3.org/2000/svg">
<path d="M460.141 216.65C468.203 216.65 475.24 215.571 481.251 213.414C487.333 211.187 491.753 208.995 494.511 206.837L504.058 225.627C500.876 228.411 495.324 231.229 487.403 234.082C479.483 236.936 470.006 238.362 458.974 238.362C448.649 238.362 439.031 236.553 430.12 232.934C421.209 229.315 413.395 224.305 406.676 217.902C399.958 211.43 394.725 203.88 390.977 195.25C387.228 186.621 385.354 177.261 385.354 167.17C385.354 157.08 387.228 147.685 390.977 138.986C394.725 130.287 399.923 122.701 406.57 116.229C413.289 109.757 421.103 104.712 430.014 101.093C438.996 97.405 448.649 95.5608 458.974 95.5608C470.006 95.5608 479.483 96.9875 487.403 99.8407C495.324 102.694 500.876 105.512 504.058 108.296L494.511 127.086C491.753 124.928 487.333 122.771 481.251 120.614C475.24 118.387 468.203 117.273 460.141 117.273C452.503 117.273 445.572 118.526 439.349 121.031C433.126 123.537 427.786 127.051 423.331 131.574C418.876 136.098 415.446 141.387 413.041 147.441C410.637 153.426 409.435 159.898 409.435 166.857C409.435 173.886 410.637 180.427 413.041 186.482C415.446 192.536 418.876 197.825 423.331 202.349C427.786 206.872 433.126 210.386 439.349 212.892C445.572 215.397 452.503 216.65 460.141 216.65Z" fill="white"/>
<path d="M555.77 238.362C546.647 238.362 538.515 236.414 531.372 232.517C524.3 228.55 518.748 223.191 514.717 216.441C510.686 209.621 508.671 201.896 508.671 193.267C508.671 184.638 510.686 176.878 514.717 169.989C518.748 163.099 524.3 157.671 531.372 153.704C538.515 149.668 546.647 147.65 555.77 147.65C564.893 147.65 572.955 149.668 579.957 153.704C586.958 157.671 592.439 163.099 596.399 169.989C600.43 176.878 602.446 184.638 602.446 193.267C602.446 201.896 600.43 209.621 596.399 216.441C592.439 223.191 586.958 228.55 579.957 232.517C572.955 236.414 564.893 238.362 555.77 238.362ZM555.77 219.573C560.862 219.573 565.282 218.424 569.03 216.128C572.778 213.831 575.678 210.7 577.729 206.733C579.78 202.766 580.805 198.243 580.805 193.163C580.805 188.082 579.78 183.559 577.729 179.592C575.678 175.556 572.778 172.355 569.03 169.989C565.282 167.623 560.862 166.44 555.77 166.44C550.678 166.44 546.223 167.623 542.404 169.989C538.656 172.355 535.721 175.556 533.6 179.592C531.549 183.559 530.523 188.082 530.523 193.163C530.523 198.243 531.549 202.766 533.6 206.733C535.721 210.7 538.656 213.831 542.404 216.128C546.223 218.424 550.678 219.573 555.77 219.573Z" fill="white"/>
<path d="M610.584 235.857V150.155H633.179V235.857H610.584ZM622.147 124.476C618.328 124.476 615.039 123.119 612.281 120.405C609.594 117.691 608.25 114.455 608.25 110.697C608.25 106.939 609.594 103.703 612.281 100.989C615.039 98.2053 618.328 96.8135 622.147 96.8135C624.693 96.8135 627.026 97.4746 629.148 98.7968C631.34 100.049 633.073 101.72 634.346 103.807C635.689 105.826 636.361 108.122 636.361 110.697C636.361 114.455 634.982 117.691 632.224 120.405C629.466 123.119 626.107 124.476 622.147 124.476Z" fill="white"/>
<path d="M699.003 147.65C704.873 147.65 710.566 148.833 716.082 151.199C721.598 153.565 726.124 157.358 729.66 162.577C733.267 167.727 735.071 174.443 735.071 182.724V235.857H712.263V186.795C712.263 179.07 710.389 173.399 706.641 169.78C702.964 166.092 698.19 164.247 692.32 164.247C688.431 164.247 684.718 165.326 681.182 167.483C677.646 169.641 674.746 172.564 672.483 176.252C670.291 179.94 669.195 184.185 669.195 188.987V235.857H646.494V150.155H669.195V164.561C669.831 162.195 671.529 159.724 674.287 157.149C677.115 154.505 680.687 152.278 685.001 150.468C689.315 148.589 693.982 147.65 699.003 147.65Z" fill="white"/>
<path d="M779.722 117.691H743.336V98.0661H838.49V117.691H802.105V235.857H779.722V117.691Z" fill="white"/>
<path d="M840.617 235.857H818.022V150.155H840.617V164.456H840.086C840.581 162.716 841.925 160.559 844.117 157.984C846.381 155.34 849.492 152.974 853.453 150.886C857.413 148.729 862.186 147.65 867.773 147.65C871.804 147.65 875.411 148.207 878.594 149.32C881.776 150.434 884.039 151.547 885.383 152.661L876.26 171.033C875.34 169.919 873.608 168.84 871.062 167.797C868.587 166.683 865.51 166.126 861.833 166.126C857.236 166.126 853.346 167.449 850.164 170.093C847.052 172.738 844.683 175.904 843.057 179.592C841.43 183.281 840.617 186.725 840.617 189.927V235.857Z" fill="white"/>
<path d="M911.321 192.223C911.321 200.574 913.053 207.22 916.519 212.161C920.055 217.102 925.606 219.573 933.173 219.573C940.811 219.573 946.363 217.102 949.828 212.161C953.293 207.22 955.026 200.574 955.026 192.223V150.155H977.515V195.042C977.515 203.671 975.782 211.256 972.317 217.798C968.852 224.27 963.83 229.315 957.253 232.934C950.677 236.553 942.65 238.362 933.173 238.362C923.768 238.362 915.776 236.553 909.199 232.934C902.622 229.315 897.601 224.27 894.136 217.798C890.671 211.256 888.938 203.671 888.938 195.042V150.155H911.321V192.223Z" fill="white"/>
<path d="M1042.53 147.65C1048.4 147.65 1054.09 148.833 1059.61 151.199C1065.12 153.565 1069.65 157.358 1073.19 162.577C1076.79 167.727 1078.6 174.443 1078.6 182.724V235.857H1055.79V186.795C1055.79 179.07 1053.91 173.399 1050.17 169.78C1046.49 166.092 1041.72 164.247 1035.85 164.247C1031.96 164.247 1028.24 165.326 1024.71 167.483C1021.17 169.641 1018.27 172.564 1016.01 176.252C1013.82 179.94 1012.72 184.185 1012.72 188.987V235.857H990.019V150.155H1012.72V164.561C1013.36 162.195 1015.05 159.724 1017.81 157.149C1020.64 154.505 1024.21 152.278 1028.53 150.468C1032.84 148.589 1037.51 147.65 1042.53 147.65Z" fill="white"/>
<path d="M1150.09 150.155H1176.71L1132.9 190.971L1180 235.857H1152.95L1114.65 199.008V235.857H1091.95V92.2205H1114.65V182.828L1150.09 150.155Z" fill="white"/>
<path fill-rule="evenodd" clip-rule="evenodd" d="M166.142 311.433C246.854 311.433 312.283 246.003 312.283 165.291C312.283 84.5795 246.854 19.1497 166.142 19.1497C85.4299 19.1497 20 84.5795 20 165.291C20 246.003 85.4299 311.433 166.142 311.433ZM263.021 262.171C242.521 282.671 216.045 296.14 187.405 300.639C158.764 305.139 129.434 300.437 103.635 287.21C77.8362 273.983 56.8981 252.913 43.8334 227.031C30.7688 201.15 26.251 171.791 30.9302 143.179C35.6093 114.567 49.2442 88.1772 69.873 67.8059C90.5017 47.4346 117.061 34.1323 145.729 29.8128C174.398 25.4934 203.698 30.3795 229.413 43.7682C255.128 57.1569 275.934 78.358 288.836 104.321L210.923 143.038C206.214 133.562 198.62 125.824 189.235 120.938C179.849 116.051 169.155 114.268 158.692 115.844C148.228 117.421 138.535 122.276 131.006 129.711C123.476 137.146 118.5 146.778 116.792 157.221C115.084 167.664 116.733 178.379 121.502 187.825C126.27 197.272 133.912 204.962 143.328 209.789C152.744 214.617 163.449 216.333 173.902 214.691C184.356 213.049 194.019 208.133 201.501 200.651L263.021 262.171ZM266.811 142.378L266.81 142.372L266.717 142.412L266.615 142.456L266.811 142.378ZM276.805 148.026L293.786 140.749L302.181 137.151L298.583 128.756L294.985 120.36L286.59 123.958L263.119 134.017L226.034 148.851L217.553 152.243L220.945 160.724L224.338 169.205L232.818 165.812L250.318 158.813L259.231 155.247C259.505 158.491 259.604 161.735 259.533 164.964C259.061 186.234 251.178 206.895 236.919 223.198L236.906 223.213L243.78 229.228L250.654 235.243C252.67 232.938 254.581 230.561 256.383 228.118C273.327 205.152 280.698 176.414 276.805 148.026Z" fill="white"/>
</svg>
