<svg xmlns="http://www.w3.org/2000/svg" xmlns:xlink="http://www.w3.org/1999/xlink" viewBox="0 0 512 512"><defs><style>.cls-1{fill:url(#Безымянный_градиент_2);}.cls-2{fill-rule:evenodd;fill:url(#Безымянный_градиент_2-2);}.cls-3{fill:url(#Безымянный_градиент_2-3);}</style><linearGradient id="Безымянный_градиент_2" y1="256" x2="512" y2="256" gradientUnits="userSpaceOnUse"><stop offset="0" stop-color="#12c1e1"/><stop offset="0.7" stop-color="#12c1e1"/><stop offset="1" stop-color="#1694d2"/></linearGradient><linearGradient id="Безымянный_градиент_2-2" x1="1.52" y1="512.45" x2="3.71" y2="512.45" gradientTransform="translate(-98.96 -51512.56) scale(100.92)" xlink:href="#Безымянный_градиент_2"/><linearGradient id="Безымянный_градиент_2-3" x1="1.09" y1="513.51" x2="3.4" y2="513.51" gradientTransform="matrix(0, 79.65, 79.65, 0, -40549.7, 150.91)" xlink:href="#Безымянный_градиент_2"/></defs><g id="Слой_2" data-name="Слой 2"><g id="Слой_1-2" data-name="Слой 1"><circle cx="256" cy="256" r="256"/><path class="cls-1" d="M256,6a250.07,250.07,0,0,1,97.31,480.36A250.07,250.07,0,0,1,158.69,25.64,248.53,248.53,0,0,1,256,6m0-6C114.62,0,0,114.62,0,256S114.62,512,256,512,512,397.38,512,256,397.38,0,256,0Z"/><path class="cls-2" d="M131.44,321H57.49L72,239.23l76.77-68.91H83.48l52.8-32.24h85.83l-111,109.21L103.64,289s24.78,1.81,44.32,0c19.55-2,41.51-10.08,41.51-10.08ZM247.7,145.94l-33,32.24s27.8,30.82,2.21,73.14c-25.18,41.5-108.8,33.85-108.8,33.85l6.44-36.47L232.19,134.25H134.66l9.88-55.61H97.39l-16.93,95.1h60.05L69.18,237.82,54.07,324.06s57,1.61,105.38,0C208,322.45,264.63,280.94,272.89,234,284.17,170.52,247.7,145.94,247.7,145.94Z"/><path class="cls-3" d="M442.08,237.54,334,384h94.72l-6.57,37.41H255l108-146.65H278.71l4.78-37.21Z"/></g></g></svg>