<?xml version="1.0" encoding="UTF-8" standalone="no"?><!DOCTYPE svg PUBLIC "-//W3C//DTD SVG 1.1//EN" "http://www.w3.org/Graphics/SVG/1.1/DTD/svg11.dtd"><svg width="100%" height="100%" viewBox="0 0 2355 530" version="1.1" xmlns="http://www.w3.org/2000/svg" xmlns:xlink="http://www.w3.org/1999/xlink" xml:space="preserve" xmlns:serif="http://www.serif.com/" style="fill-rule:evenodd;clip-rule:evenodd;stroke-linejoin:round;stroke-miterlimit:2;"><rect id="Solid-Positive" serif:id="Solid Positive" x="0.751" y="0.803" width="2354.17" height="529.167" style="fill:none;"/><path d="M167.643,516.417l-155.325,-0l30.475,-171.825l161.246,-144.742l-137.125,0l110.887,-67.717l180.292,0l-233.196,229.388l-15.658,87.604c-0,-0 52.054,3.808 93.108,-0c41.05,-4.229 87.183,-21.158 87.183,-21.158l-121.887,88.45Zm244.2,-367.775l-69.409,67.712c0,0 58.405,64.754 4.655,153.634c-52.905,87.179 -228.542,71.095 -228.542,71.095l13.542,-76.6l247.166,-240.391l-204.841,-0l20.737,-116.809l-99.033,0l-35.55,199.763l126.116,-0l-149.82,134.583l-31.738,181.138c0,-0 119.771,3.387 221.346,-0c101.996,-3.384 220.921,-90.571 238.275,-189.179c23.7,-133.317 -52.904,-184.946 -52.904,-184.946Z" style="fill:#33c3e0;"/><path d="M708.086,134.633c27.506,0 52.038,6.414 73.593,19.241c21.556,12.828 38.218,31.011 49.988,54.551c11.77,23.539 17.654,50.12 17.654,79.742c0,13.224 -1.322,27.242 -3.967,42.053l-233.276,0c-1.587,9.257 -2.381,17.721 -2.381,25.391c0,19.572 3.901,36.697 11.704,51.376c7.802,14.679 18.712,25.92 32.73,33.722c14.018,7.803 29.755,11.704 47.211,11.704c17.191,-0 36.102,-3.637 56.732,-10.91c20.63,-7.274 44.037,-18.316 70.221,-33.127l-14.679,77.362c-42.318,23.275 -83.842,34.912 -124.573,34.912c-33.061,-0 -62.22,-7.273 -87.479,-21.82c-25.258,-14.547 -44.698,-35.441 -58.319,-62.683c-13.621,-27.242 -20.431,-58.452 -20.431,-93.628c-0,-37.822 8.199,-72.8 24.597,-104.935c16.398,-32.135 38.813,-57.327 67.245,-75.577c28.433,-18.249 59.576,-27.374 93.43,-27.374Zm56.732,141.236l0,-6.348c0,-21.159 -5.223,-37.954 -15.671,-50.385c-10.447,-12.431 -25.324,-18.646 -44.632,-18.646c-38.086,0 -65.46,25.126 -82.122,75.379l142.425,-0Z" style="fill:#fff;fill-rule:nonzero;"/><path d="M1090.14,134.633c27.506,0 52.037,6.414 73.593,19.241c21.555,12.828 38.218,31.011 49.987,54.551c11.77,23.539 17.655,50.12 17.655,79.742c-0,13.224 -1.323,27.242 -3.967,42.053l-233.277,0c-1.587,9.257 -2.38,17.721 -2.38,25.391c-0,19.572 3.901,36.697 11.703,51.376c7.803,14.679 18.713,25.92 32.73,33.722c14.018,7.803 29.755,11.704 47.211,11.704c17.192,-0 36.102,-3.637 56.732,-10.91c20.63,-7.274 44.037,-18.316 70.221,-33.127l-14.679,77.362c-42.317,23.275 -83.842,34.912 -124.572,34.912c-33.061,-0 -62.221,-7.273 -87.479,-21.82c-25.258,-14.547 -44.698,-35.441 -58.319,-62.683c-13.621,-27.242 -20.432,-58.452 -20.432,-93.628c0,-37.822 8.199,-72.8 24.597,-104.935c16.399,-32.135 38.814,-57.327 67.246,-75.577c28.432,-18.249 59.575,-27.374 93.43,-27.374Zm56.732,141.236l-0,-6.348c-0,-21.159 -5.224,-37.954 -15.671,-50.385c-10.447,-12.431 -25.325,-18.646 -44.632,-18.646c-38.086,0 -65.46,25.126 -82.123,75.379l142.426,-0Z" style="fill:#fff;fill-rule:nonzero;"/><path d="M1618.18,144.155l-215.423,291.992l188.842,-0l-13.092,74.585l-333.252,-0l215.424,-292.389l-168.213,-0l9.522,-74.188l316.192,-0Z" style="fill:#33c3e0;fill-rule:nonzero;"/><path d="M1827.26,134.633c27.507,0 52.038,6.414 73.593,19.241c21.556,12.828 38.218,31.011 49.988,54.551c11.77,23.539 17.654,50.12 17.654,79.742c0,13.224 -1.322,27.242 -3.967,42.053l-233.276,0c-1.587,9.257 -2.381,17.721 -2.381,25.391c0,19.572 3.902,36.697 11.704,51.376c7.802,14.679 18.712,25.92 32.73,33.722c14.018,7.803 29.755,11.704 47.211,11.704c17.191,-0 36.102,-3.637 56.732,-10.91c20.63,-7.274 44.037,-18.316 70.221,-33.127l-14.679,77.362c-42.318,23.275 -83.842,34.912 -124.573,34.912c-33.061,-0 -62.22,-7.273 -87.478,-21.82c-25.259,-14.547 -44.699,-35.441 -58.32,-62.683c-13.621,-27.242 -20.431,-58.452 -20.431,-93.628c-0,-37.822 8.199,-72.8 24.597,-104.935c16.398,-32.135 38.813,-57.327 67.246,-75.577c28.432,-18.249 59.575,-27.374 93.429,-27.374Zm56.732,141.236l0,-6.348c0,-21.159 -5.223,-37.954 -15.67,-50.385c-10.448,-12.431 -25.325,-18.646 -44.632,-18.646c-38.086,0 -65.461,25.126 -82.123,75.379l142.425,-0Z" style="fill:#fff;fill-rule:nonzero;"/><path d="M2209.31,134.633c27.506,0 52.037,6.414 73.593,19.241c21.555,12.828 38.218,31.011 49.988,54.551c11.769,23.539 17.654,50.12 17.654,79.742c0,13.224 -1.322,27.242 -3.967,42.053l-233.277,0c-1.587,9.257 -2.38,17.721 -2.38,25.391c0,19.572 3.901,36.697 11.704,51.376c7.802,14.679 18.712,25.92 32.73,33.722c14.017,7.803 29.754,11.704 47.21,11.704c17.192,-0 36.103,-3.637 56.732,-10.91c20.63,-7.274 44.037,-18.316 70.221,-33.127l-14.679,77.362c-42.317,23.275 -83.841,34.912 -124.572,34.912c-33.061,-0 -62.221,-7.273 -87.479,-21.82c-25.258,-14.547 -44.698,-35.441 -58.319,-62.683c-13.621,-27.242 -20.432,-58.452 -20.432,-93.628c0,-37.822 8.2,-72.8 24.598,-104.935c16.398,-32.135 38.813,-57.327 67.245,-75.577c28.432,-18.249 59.576,-27.374 93.43,-27.374Zm56.732,141.236l-0,-6.348c-0,-21.159 -5.224,-37.954 -15.671,-50.385c-10.447,-12.431 -25.324,-18.646 -44.632,-18.646c-38.086,0 -65.46,25.126 -82.123,75.379l142.426,-0Z" style="fill:#fff;fill-rule:nonzero;"/></svg>