<?xml version="1.0" encoding="UTF-8" standalone="no"?><!DOCTYPE svg PUBLIC "-//W3C//DTD SVG 1.1//EN" "http://www.w3.org/Graphics/SVG/1.1/DTD/svg11.dtd"><svg width="100%" height="100%" viewBox="0 0 613 613" version="1.1" xmlns="http://www.w3.org/2000/svg" xmlns:xlink="http://www.w3.org/1999/xlink" xml:space="preserve" xmlns:serif="http://www.serif.com/" style="fill-rule:evenodd;clip-rule:evenodd;stroke-linejoin:round;stroke-miterlimit:2;"><rect id="Gradient-Positive" serif:id="Gradient Positive" x="0" y="0" width="612.083" height="612.917" style="fill:none;"/><path d="M105.391,479.618c-0,-7.05 -1.498,-12.525 -4.493,-16.424c-2.994,-3.9 -7.112,-5.849 -12.353,-5.849c-2.87,-0 -5.88,0.967 -9.031,2.901c-3.151,1.934 -6.068,4.492 -8.751,7.674l-6.551,45.764c0.25,0.062 1.529,0.14 3.837,0.234c2.309,0.094 3.9,0.14 4.773,0.14c10.232,0 18.219,-3.026 23.959,-9.078c5.74,-6.052 8.61,-14.506 8.61,-25.362Zm21.338,-0.374c-0,7.487 -1.342,14.506 -4.025,21.057c-2.683,6.551 -6.426,12.104 -11.23,16.659c-4.804,4.554 -10.654,8.033 -17.548,10.435c-6.894,2.402 -14.615,3.603 -23.163,3.603c-10.481,-0 -20.214,-0.718 -29.199,-2.153l18.062,-130.928l20.87,-0l-7.299,51.753l0.093,0.094l0.281,-0.094c3.931,-3.556 7.549,-6.067 10.856,-7.533c3.307,-1.467 6.988,-2.2 11.043,-2.2c5.928,0 11.293,1.701 16.097,5.101c4.805,3.4 8.532,8.111 11.184,14.132c2.652,6.02 3.978,12.712 3.978,20.074Z" style="fill:url(#_Linear1);fill-rule:nonzero;"/><path d="M183.068,439.937c6.489,0 12.276,1.513 17.36,4.539c5.085,3.026 9.016,7.316 11.792,12.869c2.777,5.552 4.165,11.823 4.165,18.811c0,3.119 -0.312,6.426 -0.936,9.92l-55.029,-0c-0.374,2.184 -0.562,4.18 -0.562,5.989c0,4.617 0.921,8.657 2.761,12.12c1.841,3.463 4.414,6.114 7.721,7.955c3.307,1.84 7.019,2.761 11.137,2.761c4.055,-0 8.516,-0.858 13.383,-2.574c4.867,-1.716 10.388,-4.321 16.565,-7.814l-3.463,18.249c-9.982,5.49 -19.778,8.236 -29.386,8.236c-7.799,-0 -14.678,-1.716 -20.636,-5.148c-5.959,-3.431 -10.544,-8.36 -13.757,-14.786c-3.214,-6.427 -4.82,-13.789 -4.82,-22.087c-0,-8.922 1.934,-17.173 5.802,-24.754c3.868,-7.58 9.156,-13.523 15.863,-17.828c6.707,-4.305 14.054,-6.458 22.04,-6.458Zm13.383,33.317l0,-1.497c0,-4.991 -1.232,-8.953 -3.697,-11.886c-2.464,-2.932 -5.974,-4.398 -10.528,-4.398c-8.985,-0 -15.442,5.927 -19.373,17.781l33.598,0Z" style="fill-rule:nonzero;"/><path d="M273.193,439.937c6.488,0 12.275,1.513 17.36,4.539c5.085,3.026 9.016,7.316 11.792,12.869c2.776,5.552 4.165,11.823 4.165,18.811c-0,3.119 -0.312,6.426 -0.936,9.92l-55.03,-0c-0.374,2.184 -0.561,4.18 -0.561,5.989c-0,4.617 0.92,8.657 2.761,12.12c1.84,3.463 4.414,6.114 7.721,7.955c3.306,1.84 7.019,2.761 11.137,2.761c4.055,-0 8.516,-0.858 13.383,-2.574c4.866,-1.716 10.388,-4.321 16.564,-7.814l-3.462,18.249c-9.983,5.49 -19.778,8.236 -29.387,8.236c-7.799,-0 -14.677,-1.716 -20.636,-5.148c-5.958,-3.431 -10.544,-8.36 -13.757,-14.786c-3.213,-6.427 -4.82,-13.789 -4.82,-22.087c0,-8.922 1.934,-17.173 5.803,-24.754c3.868,-7.58 9.156,-13.523 15.863,-17.828c6.707,-4.305 14.053,-6.458 22.04,-6.458Zm13.383,33.317l-0,-1.497c-0,-4.991 -1.233,-8.953 -3.697,-11.886c-2.465,-2.932 -5.974,-4.398 -10.529,-4.398c-8.984,-0 -15.442,5.927 -19.372,17.781l33.598,0Z" style="fill-rule:nonzero;"/><path d="M397.757,442.183l-50.818,68.881l44.548,-0l-3.089,17.594l-78.613,0l50.818,-68.974l-39.681,0l2.246,-17.501l74.589,0Z" style="fill:url(#_Linear2);fill-rule:nonzero;"/><path d="M447.078,439.937c6.488,0 12.275,1.513 17.36,4.539c5.085,3.026 9.016,7.316 11.792,12.869c2.776,5.552 4.165,11.823 4.165,18.811c-0,3.119 -0.312,6.426 -0.936,9.92l-55.029,-0c-0.375,2.184 -0.562,4.18 -0.562,5.989c0,4.617 0.92,8.657 2.761,12.12c1.84,3.463 4.414,6.114 7.721,7.955c3.307,1.84 7.019,2.761 11.137,2.761c4.055,-0 8.516,-0.858 13.383,-2.574c4.866,-1.716 10.388,-4.321 16.565,-7.814l-3.463,18.249c-9.983,5.49 -19.778,8.236 -29.387,8.236c-7.798,-0 -14.677,-1.716 -20.636,-5.148c-5.958,-3.431 -10.544,-8.36 -13.757,-14.786c-3.213,-6.427 -4.82,-13.789 -4.82,-22.087c0,-8.922 1.935,-17.173 5.803,-24.754c3.868,-7.58 9.156,-13.523 15.863,-17.828c6.707,-4.305 14.054,-6.458 22.04,-6.458Zm13.383,33.317l-0,-1.497c-0,-4.991 -1.233,-8.953 -3.697,-11.886c-2.465,-2.932 -5.974,-4.398 -10.529,-4.398c-8.984,-0 -15.442,5.927 -19.372,17.781l33.598,0Z" style="fill-rule:nonzero;"/><path d="M537.202,439.937c6.489,0 12.276,1.513 17.361,4.539c5.084,3.026 9.015,7.316 11.792,12.869c2.776,5.552 4.164,11.823 4.164,18.811c0,3.119 -0.312,6.426 -0.936,9.92l-55.029,-0c-0.374,2.184 -0.561,4.18 -0.561,5.989c-0,4.617 0.92,8.657 2.76,12.12c1.841,3.463 4.415,6.114 7.721,7.955c3.307,1.84 7.019,2.761 11.137,2.761c4.056,-0 8.517,-0.858 13.383,-2.574c4.867,-1.716 10.388,-4.321 16.565,-7.814l-3.463,18.249c-9.982,5.49 -19.778,8.236 -29.386,8.236c-7.799,-0 -14.678,-1.716 -20.636,-5.148c-5.958,-3.431 -10.544,-8.36 -13.757,-14.786c-3.214,-6.427 -4.82,-13.789 -4.82,-22.087c-0,-8.922 1.934,-17.173 5.802,-24.754c3.869,-7.58 9.156,-13.523 15.863,-17.828c6.707,-4.305 14.054,-6.458 22.04,-6.458Zm13.383,33.317l0,-1.497c0,-4.991 -1.232,-8.953 -3.697,-11.886c-2.464,-2.932 -5.974,-4.398 -10.528,-4.398c-8.985,-0 -15.442,5.927 -19.373,17.781l33.598,0Z" style="fill-rule:nonzero;"/><path d="M265.788,349.621l-89.873,0l17.634,-99.42l93.298,-83.749l-79.342,-0l64.161,-39.182l104.319,0l-134.93,132.727l-9.06,50.689c0,-0 30.119,2.203 53.874,-0c23.752,-2.447 50.445,-12.243 50.445,-12.243l-70.526,51.178Zm141.297,-212.799l-40.16,39.18c-0,-0 33.793,37.467 2.693,88.894c-30.611,50.443 -132.237,41.137 -132.237,41.137l7.835,-44.322l143.014,-139.094l-118.524,0l11.999,-67.586l-57.302,-0l-20.57,115.585l72.973,-0l-86.688,77.871l-18.364,104.809c0,-0 69.301,1.96 128.074,-0c59.016,-1.958 127.827,-52.406 137.868,-109.462c13.714,-77.139 -30.611,-107.012 -30.611,-107.012Z" style="fill:url(#_Linear3);"/><defs><linearGradient id="_Linear1" x1="0" y1="0" x2="1" y2="0" gradientUnits="userSpaceOnUse" gradientTransform="matrix(85.1644,0,0,-119.485,41.5641,464.457)"><stop offset="0" style="stop-color:#12c1e1;stop-opacity:1"/><stop offset="0.7" style="stop-color:#12c1e1;stop-opacity:1"/><stop offset="1" style="stop-color:#1694d2;stop-opacity:1"/></linearGradient><linearGradient id="_Linear2" x1="0" y1="0" x2="1" y2="0" gradientUnits="userSpaceOnUse" gradientTransform="matrix(5.29504e-15,86.4746,-86.4746,5.29504e-15,333.429,442.183)"><stop offset="0" style="stop-color:#12c1e1;stop-opacity:1"/><stop offset="0.7" style="stop-color:#12c1e1;stop-opacity:1"/><stop offset="1" style="stop-color:#1694d2;stop-opacity:1"/></linearGradient><linearGradient id="_Linear3" x1="0" y1="0" x2="1" y2="0" gradientUnits="userSpaceOnUse" gradientTransform="matrix(268.575,0,0,-268.575,171.754,204.598)"><stop offset="0" style="stop-color:#12c1e1;stop-opacity:1"/><stop offset="0.7" style="stop-color:#12c1e1;stop-opacity:1"/><stop offset="1" style="stop-color:#1694d2;stop-opacity:1"/></linearGradient></defs></svg>