<?xml version="1.0" encoding="UTF-8" standalone="no"?><!DOCTYPE svg PUBLIC "-//W3C//DTD SVG 1.1//EN" "http://www.w3.org/Graphics/SVG/1.1/DTD/svg11.dtd"><svg width="100%" height="100%" viewBox="0 0 613 614" version="1.1" xmlns="http://www.w3.org/2000/svg" xmlns:xlink="http://www.w3.org/1999/xlink" xml:space="preserve" xmlns:serif="http://www.serif.com/" style="fill-rule:evenodd;clip-rule:evenodd;stroke-linejoin:round;stroke-miterlimit:2;"><rect id="Mono-Negative" serif:id="Mono Negative" x="0.083" y="0.917" width="612.083" height="612.917" style="fill:none;"/><path d="M105.474,480.535c-0,-7.05 -1.497,-12.525 -4.492,-16.425c-2.995,-3.899 -7.113,-5.849 -12.354,-5.849c-2.87,0 -5.88,0.967 -9.031,2.901c-3.151,1.935 -6.067,4.493 -8.75,7.675l-6.551,45.764c0.249,0.062 1.528,0.14 3.837,0.234c2.308,0.093 3.899,0.14 4.773,0.14c10.232,0 18.218,-3.026 23.958,-9.078c5.74,-6.052 8.61,-14.506 8.61,-25.362Zm21.338,-0.374c-0,7.487 -1.342,14.506 -4.024,21.057c-2.683,6.551 -6.427,12.104 -11.231,16.658c-4.804,4.555 -10.653,8.033 -17.547,10.435c-6.895,2.402 -14.616,3.603 -23.163,3.603c-10.482,0 -20.215,-0.717 -29.2,-2.152l18.063,-130.929l20.87,0l-7.3,51.754l0.094,0.094l0.28,-0.094c3.931,-3.556 7.55,-6.067 10.856,-7.534c3.307,-1.466 6.988,-2.199 11.044,-2.199c5.927,0 11.293,1.7 16.097,5.101c4.804,3.4 8.532,8.11 11.183,14.131c2.652,6.021 3.978,12.712 3.978,20.075Z" style="fill:#fff;fill-rule:nonzero;"/><path d="M183.151,440.854c6.489,0 12.276,1.513 17.361,4.539c5.085,3.026 9.015,7.315 11.792,12.868c2.776,5.553 4.164,11.823 4.164,18.811c0,3.12 -0.312,6.427 -0.935,9.921l-55.03,-0c-0.374,2.183 -0.561,4.18 -0.561,5.989c-0,4.617 0.92,8.657 2.761,12.12c1.84,3.462 4.414,6.114 7.721,7.955c3.306,1.84 7.019,2.76 11.136,2.76c4.056,0 8.517,-0.858 13.383,-2.573c4.867,-1.716 10.389,-4.321 16.565,-7.815l-3.462,18.25c-9.983,5.49 -19.779,8.235 -29.387,8.235c-7.799,0 -14.677,-1.715 -20.636,-5.147c-5.958,-3.431 -10.544,-8.36 -13.757,-14.787c-3.213,-6.426 -4.82,-13.788 -4.82,-22.086c0,-8.922 1.934,-17.174 5.803,-24.754c3.868,-7.581 9.155,-13.523 15.863,-17.828c6.707,-4.305 14.053,-6.458 22.039,-6.458Zm13.383,33.317l0,-1.497c0,-4.992 -1.232,-8.954 -3.696,-11.886c-2.465,-2.932 -5.974,-4.399 -10.529,-4.399c-8.984,0 -15.442,5.928 -19.372,17.782l33.597,0Z" style="fill:#fff;fill-rule:nonzero;"/><path d="M273.276,440.854c6.489,0 12.275,1.513 17.36,4.539c5.085,3.026 9.016,7.315 11.792,12.868c2.777,5.553 4.165,11.823 4.165,18.811c-0,3.12 -0.312,6.427 -0.936,9.921l-55.029,-0c-0.375,2.183 -0.562,4.18 -0.562,5.989c0,4.617 0.921,8.657 2.761,12.12c1.841,3.462 4.414,6.114 7.721,7.955c3.307,1.84 7.019,2.76 11.137,2.76c4.055,0 8.516,-0.858 13.383,-2.573c4.866,-1.716 10.388,-4.321 16.565,-7.815l-3.463,18.25c-9.983,5.49 -19.778,8.235 -29.386,8.235c-7.799,0 -14.678,-1.715 -20.636,-5.147c-5.959,-3.431 -10.544,-8.36 -13.758,-14.787c-3.213,-6.426 -4.819,-13.788 -4.819,-22.086c-0,-8.922 1.934,-17.174 5.802,-24.754c3.868,-7.581 9.156,-13.523 15.863,-17.828c6.707,-4.305 14.054,-6.458 22.04,-6.458Zm13.383,33.317l-0,-1.497c-0,-4.992 -1.232,-8.954 -3.697,-11.886c-2.464,-2.932 -5.974,-4.399 -10.528,-4.399c-8.985,0 -15.442,5.928 -19.373,17.782l33.598,0Z" style="fill:#fff;fill-rule:nonzero;"/><path d="M397.84,443.1l-50.817,68.88l44.547,0l-3.088,17.595l-78.614,-0l50.818,-68.974l-39.681,-0l2.246,-17.501l74.589,0Z" style="fill:#fff;fill-rule:nonzero;"/><path d="M447.161,440.854c6.489,0 12.275,1.513 17.36,4.539c5.085,3.026 9.016,7.315 11.792,12.868c2.777,5.553 4.165,11.823 4.165,18.811c0,3.12 -0.312,6.427 -0.936,9.921l-55.029,-0c-0.374,2.183 -0.562,4.18 -0.562,5.989c0,4.617 0.921,8.657 2.761,12.12c1.841,3.462 4.414,6.114 7.721,7.955c3.307,1.84 7.019,2.76 11.137,2.76c4.055,0 8.516,-0.858 13.383,-2.573c4.866,-1.716 10.388,-4.321 16.565,-7.815l-3.463,18.25c-9.982,5.49 -19.778,8.235 -29.386,8.235c-7.799,0 -14.678,-1.715 -20.636,-5.147c-5.959,-3.431 -10.544,-8.36 -13.758,-14.787c-3.213,-6.426 -4.819,-13.788 -4.819,-22.086c-0,-8.922 1.934,-17.174 5.802,-24.754c3.868,-7.581 9.156,-13.523 15.863,-17.828c6.707,-4.305 14.054,-6.458 22.04,-6.458Zm13.383,33.317l-0,-1.497c-0,-4.992 -1.232,-8.954 -3.697,-11.886c-2.464,-2.932 -5.974,-4.399 -10.528,-4.399c-8.985,0 -15.442,5.928 -19.373,17.782l33.598,0Z" style="fill:#fff;fill-rule:nonzero;"/><path d="M537.285,440.854c6.489,0 12.276,1.513 17.361,4.539c5.085,3.026 9.015,7.315 11.792,12.868c2.776,5.553 4.165,11.823 4.165,18.811c-0,3.12 -0.312,6.427 -0.936,9.921l-55.03,-0c-0.374,2.183 -0.561,4.18 -0.561,5.989c-0,4.617 0.92,8.657 2.761,12.12c1.84,3.462 4.414,6.114 7.721,7.955c3.306,1.84 7.019,2.76 11.136,2.76c4.056,0 8.517,-0.858 13.383,-2.573c4.867,-1.716 10.389,-4.321 16.565,-7.815l-3.462,18.25c-9.983,5.49 -19.778,8.235 -29.387,8.235c-7.799,0 -14.677,-1.715 -20.636,-5.147c-5.958,-3.431 -10.544,-8.36 -13.757,-14.787c-3.213,-6.426 -4.82,-13.788 -4.82,-22.086c0,-8.922 1.934,-17.174 5.803,-24.754c3.868,-7.581 9.156,-13.523 15.863,-17.828c6.707,-4.305 14.053,-6.458 22.039,-6.458Zm13.383,33.317l0,-1.497c0,-4.992 -1.232,-8.954 -3.696,-11.886c-2.465,-2.932 -5.974,-4.399 -10.529,-4.399c-8.984,0 -15.442,5.928 -19.372,17.782l33.597,0Z" style="fill:#fff;fill-rule:nonzero;"/><path d="M265.872,350.538l-89.873,0l17.633,-99.42l93.299,-83.749l-79.342,-0l64.16,-39.182l104.319,-0l-134.93,132.726l-9.06,50.689c0,0 30.12,2.204 53.874,0c23.752,-2.447 50.445,-12.242 50.445,-12.242l-70.525,51.178Zm141.297,-212.799l-40.161,39.179c0,0 33.794,37.468 2.693,88.894c-30.611,50.443 -132.237,41.137 -132.237,41.137l7.836,-44.321l143.013,-139.094l-118.524,-0l11.999,-67.587l-57.302,0l-20.569,115.585l72.972,0l-86.688,77.872l-18.363,104.808c-0,0 69.3,1.96 128.073,0c59.016,-1.957 127.827,-52.405 137.869,-109.461c13.713,-77.139 -30.611,-107.012 -30.611,-107.012Z" style="fill:#fff;"/></svg>