<?xml version="1.0" encoding="UTF-8" standalone="no"?><!DOCTYPE svg PUBLIC "-//W3C//DTD SVG 1.1//EN" "http://www.w3.org/Graphics/SVG/1.1/DTD/svg11.dtd"><svg width="100%" height="100%" viewBox="0 0 2355 530" version="1.1" xmlns="http://www.w3.org/2000/svg" xmlns:xlink="http://www.w3.org/1999/xlink" xml:space="preserve" xmlns:serif="http://www.serif.com/" style="fill-rule:evenodd;clip-rule:evenodd;stroke-linejoin:round;stroke-miterlimit:2;"><rect id="Solid-Negative" serif:id="Solid Negative" x="0.751" y="0.636" width="2354.17" height="529.167" style="fill:none;"/><path d="M167.643,516.25l-155.325,0l30.475,-171.825l161.246,-144.742l-137.125,0l110.887,-67.716l180.292,-0l-233.196,229.387l-15.658,87.604c-0,0 52.054,3.809 93.108,0c41.05,-4.229 87.183,-21.158 87.183,-21.158l-121.887,88.45Zm244.2,-367.775l-69.409,67.713c0,-0 58.405,64.754 4.655,153.633c-52.905,87.179 -228.542,71.096 -228.542,71.096l13.542,-76.6l247.166,-240.392l-204.841,-0l20.737,-116.808l-99.033,-0l-35.55,199.762l126.116,0l-149.82,134.584l-31.738,181.137c0,-0 119.771,3.387 221.346,-0c101.996,-3.383 220.921,-90.571 238.275,-189.179c23.7,-133.317 -52.904,-184.946 -52.904,-184.946Z" style="fill:#33c3e0;"/><path d="M708.086,134.466c27.506,0 52.038,6.414 73.593,19.242c21.556,12.827 38.218,31.011 49.988,54.55c11.77,23.539 17.654,50.12 17.654,79.742c0,13.225 -1.322,27.242 -3.967,42.054l-233.276,-0c-1.587,9.257 -2.381,17.72 -2.381,25.39c0,19.572 3.901,36.698 11.704,51.377c7.802,14.679 18.712,25.919 32.73,33.722c14.018,7.802 29.755,11.703 47.211,11.703c17.191,0 36.102,-3.637 56.732,-10.91c20.63,-7.273 44.037,-18.316 70.221,-33.127l-14.679,77.362c-42.318,23.275 -83.842,34.912 -124.573,34.912c-33.061,0 -62.22,-7.273 -87.479,-21.82c-25.258,-14.546 -44.698,-35.441 -58.319,-62.683c-13.621,-27.242 -20.431,-58.451 -20.431,-93.628c-0,-37.821 8.199,-72.799 24.597,-104.934c16.398,-32.135 38.813,-57.328 67.245,-75.577c28.433,-18.25 59.576,-27.375 93.43,-27.375Zm56.732,141.236l0,-6.348c0,-21.159 -5.223,-37.954 -15.671,-50.384c-10.447,-12.431 -25.324,-18.647 -44.632,-18.647c-38.086,0 -65.46,25.127 -82.122,75.379l142.425,-0Z" style="fill:#241f1e;fill-rule:nonzero;"/><path d="M1090.14,134.466c27.506,0 52.037,6.414 73.593,19.242c21.555,12.827 38.218,31.011 49.987,54.55c11.77,23.539 17.655,50.12 17.655,79.742c-0,13.225 -1.323,27.242 -3.967,42.054l-233.277,-0c-1.587,9.257 -2.38,17.72 -2.38,25.39c-0,19.572 3.901,36.698 11.703,51.377c7.803,14.679 18.713,25.919 32.73,33.722c14.018,7.802 29.755,11.703 47.211,11.703c17.192,0 36.102,-3.637 56.732,-10.91c20.63,-7.273 44.037,-18.316 70.221,-33.127l-14.679,77.362c-42.317,23.275 -83.842,34.912 -124.572,34.912c-33.061,0 -62.221,-7.273 -87.479,-21.82c-25.258,-14.546 -44.698,-35.441 -58.319,-62.683c-13.621,-27.242 -20.432,-58.451 -20.432,-93.628c0,-37.821 8.199,-72.799 24.597,-104.934c16.399,-32.135 38.814,-57.328 67.246,-75.577c28.432,-18.25 59.575,-27.375 93.43,-27.375Zm56.732,141.236l-0,-6.348c-0,-21.159 -5.224,-37.954 -15.671,-50.384c-10.447,-12.431 -25.325,-18.647 -44.632,-18.647c-38.086,0 -65.46,25.127 -82.123,75.379l142.426,-0Z" style="fill:#241f1e;fill-rule:nonzero;"/><path d="M1618.18,143.988l-215.423,291.992l188.842,0l-13.092,74.585l-333.252,0l215.424,-292.389l-168.213,0l9.522,-74.188l316.192,-0Z" style="fill:#33c3e0;fill-rule:nonzero;"/><path d="M1827.26,134.466c27.507,0 52.038,6.414 73.593,19.242c21.556,12.827 38.218,31.011 49.988,54.55c11.77,23.539 17.654,50.12 17.654,79.742c0,13.225 -1.322,27.242 -3.967,42.054l-233.276,-0c-1.587,9.257 -2.381,17.72 -2.381,25.39c0,19.572 3.902,36.698 11.704,51.377c7.802,14.679 18.712,25.919 32.73,33.722c14.018,7.802 29.755,11.703 47.211,11.703c17.191,0 36.102,-3.637 56.732,-10.91c20.63,-7.273 44.037,-18.316 70.221,-33.127l-14.679,77.362c-42.318,23.275 -83.842,34.912 -124.573,34.912c-33.061,0 -62.22,-7.273 -87.478,-21.82c-25.259,-14.546 -44.699,-35.441 -58.32,-62.683c-13.621,-27.242 -20.431,-58.451 -20.431,-93.628c-0,-37.821 8.199,-72.799 24.597,-104.934c16.398,-32.135 38.813,-57.328 67.246,-75.577c28.432,-18.25 59.575,-27.375 93.429,-27.375Zm56.732,141.236l0,-6.348c0,-21.159 -5.223,-37.954 -15.67,-50.384c-10.448,-12.431 -25.325,-18.647 -44.632,-18.647c-38.086,0 -65.461,25.127 -82.123,75.379l142.425,-0Z" style="fill:#241f1e;fill-rule:nonzero;"/><path d="M2209.31,134.466c27.506,0 52.037,6.414 73.593,19.242c21.555,12.827 38.218,31.011 49.988,54.55c11.769,23.539 17.654,50.12 17.654,79.742c0,13.225 -1.322,27.242 -3.967,42.054l-233.277,-0c-1.587,9.257 -2.38,17.72 -2.38,25.39c0,19.572 3.901,36.698 11.704,51.377c7.802,14.679 18.712,25.919 32.73,33.722c14.017,7.802 29.754,11.703 47.21,11.703c17.192,0 36.103,-3.637 56.732,-10.91c20.63,-7.273 44.037,-18.316 70.221,-33.127l-14.679,77.362c-42.317,23.275 -83.841,34.912 -124.572,34.912c-33.061,0 -62.221,-7.273 -87.479,-21.82c-25.258,-14.546 -44.698,-35.441 -58.319,-62.683c-13.621,-27.242 -20.432,-58.451 -20.432,-93.628c0,-37.821 8.2,-72.799 24.598,-104.934c16.398,-32.135 38.813,-57.328 67.245,-75.577c28.432,-18.25 59.576,-27.375 93.43,-27.375Zm56.732,141.236l-0,-6.348c-0,-21.159 -5.224,-37.954 -15.671,-50.384c-10.447,-12.431 -25.324,-18.647 -44.632,-18.647c-38.086,0 -65.46,25.127 -82.123,75.379l142.426,-0Z" style="fill:#241f1e;fill-rule:nonzero;"/></svg>